# xmcd
# Copyright (C) 1995-1998 Ti Kan
#
# Track frame offsets:
#       150
#       19647
#       42575
#       66620
#       85370
#       103482
#       126045
#       148890
#       164777
#       183575
#       195267
#       217687
#
# Disc length: 3089 seconds
#
# Revision: 0
# Processed by: cddbd v1.5.1PL0 Copyright (c) Steve Scherf et al.
# Submitted via: CD-Transfer v1.0
#
DISCID=b80c0f0c
DTITLE=Various Artist - 
DYEAR=99
DGENRE=
TTITLE0=Ana Firmino with Tito Paris    Chico Malandro
TTITLE1=Boy Gé Mendes    Cumba Iétu
TTITLE2=Nana Matias   Pays Sol
TTITLE3=Teofilo Chantre   Nha Fe
TTITLE4=Cesaria Evora   Cabo Verde Manda Mantenha
TTITLE5=Bana   Cabinda a Cunene
TTITLE6=Maria Alice   Sol Na Tchada
TTITLE7=José "Zeca" Neves
TTITLE8=Fantcha   Cinderela
TTITLE9=Zeca di nha Reinalda, Joao Cirilio and Blick Tchutchy   Tchon di Massa Pé
TTITLE10=Dulce Matias   Nha Cumpadre Faustine
TTITLE11=Djurumani   Galo Bedjo
EXTD=
EXTT0=
EXTT1=
EXTT2=
EXTT3=
EXTT4=
EXTT5=
EXTT6=
EXTT7=
EXTT8=
EXTT9=
EXTT10=
EXTT11=
PLAYORDER=
